<svg width="16" height="23" viewBox="0 0 16 23" fill="none" xmlns="http://www.w3.org/2000/svg">
<path d="M13.09 2.81995C12.1703 2.06353 11.0933 1.52198 9.93766 1.23479C8.782 0.947605 7.5768 0.922035 6.41 1.15995C4.85638 1.47377 3.43099 2.24202 2.31469 3.36723C1.19838 4.49243 0.441475 5.92388 0.140003 7.47995C-0.0801505 8.64667 -0.0401452 9.8476 0.257165 10.9971C0.554475 12.1466 1.10177 13.2163 1.86 14.1299C2.56369 14.924 2.96704 15.9395 3 16.9999V19.9999C3 20.7956 3.31607 21.5587 3.87868 22.1213C4.44129 22.6839 5.20435 22.9999 6 22.9999H10C10.7957 22.9999 11.5587 22.6839 12.1213 22.1213C12.6839 21.5587 13 20.7956 13 19.9999V17.1899C13.0336 16.0191 13.4637 14.8944 14.22 13.9999C15.5451 12.3607 16.1698 10.2648 15.9582 8.16757C15.7466 6.07038 14.7159 4.14143 13.09 2.79995V2.81995ZM11 19.9999C11 20.2652 10.8946 20.5195 10.7071 20.7071C10.5196 20.8946 10.2652 20.9999 10 20.9999H6C5.73479 20.9999 5.48043 20.8946 5.2929 20.7071C5.10536 20.5195 5 20.2652 5 19.9999V18.9999H11V19.9999ZM12.67 12.7599C11.6645 13.9525 11.0779 15.442 11 16.9999H9V13.9999C9 13.7347 8.89465 13.4804 8.70711 13.2928C8.51957 13.1053 8.26522 12.9999 8 12.9999C7.73479 12.9999 7.48043 13.1053 7.2929 13.2928C7.10536 13.4804 7 13.7347 7 13.9999V16.9999H5C4.97362 15.468 4.40695 13.9947 3.4 12.8399C2.73564 12.0439 2.28889 11.0894 2.10331 10.0693C1.91773 9.04922 1.99965 7.99846 2.34109 7.01948C2.68253 6.04049 3.27182 5.16669 4.05153 4.48327C4.83123 3.79985 5.77472 3.33015 6.79 3.11995C7.66256 2.94029 8.56416 2.95719 9.42937 3.16942C10.2946 3.38164 11.1017 3.78387 11.7921 4.3469C12.4824 4.90993 13.0388 5.61962 13.4207 6.42446C13.8026 7.22931 14.0005 8.10909 14 8.99995C14.0074 10.3698 13.5371 11.6994 12.67 12.7599Z" fill="white"/>
</svg>
